<svg id="Layer_1" data-name="Layer 1" xmlns="http://www.w3.org/2000/svg" viewBox="0 0 250 16"><defs><style>.cls-1{fill:#fff;}</style></defs><title>game_title</title><path class="cls-1" d="M61.89,15.76H60.12v-14h-0.5l-5.26,9.14L49.1,1.77H48.61v14H46.84V0.24H50l4.39,7.9,4.33-7.9h3.18V15.76Zm-2.25,0H57.93V8.89l-3.3,5.55H54.1L50.8,8.85v6.91H49.1V2.68l5.07,8.79h0.39l5.08-8.79V15.76Z"/><path class="cls-1" d="M72.47,15.76h-9V0.24h9V1.77H65.21V14.23h7.26v1.53Zm0-8.07H65.69V2.25h6.77V3.81h-5V6.16h5V7.69Zm0,6.06H65.69V8.17h6.77V9.71h-5v2.48h5v1.55Z"/><path class="cls-1" d="M90.11,15.76H88.34V2.55a0.75,0.75,0,0,0-.85-0.78H75.59v14H73.82V0.24H87.33c1.77,0,2.78.7,2.78,2.54v13Zm-8.38,0H80v-12H77.84v12H76.08V2.25h5.65V15.76Zm6.13,0H86.09v-12H84v12H82.21V2.25h5.1a0.44,0.44,0,0,1,.54.54v13Z"/><path class="cls-1" d="M102.22,13.3c0,1.73-.89,2.46-2.66,2.46H94.34c-1.67,0-2.68-.7-2.68-2.46V2.7c0-1.65.91-2.46,2.68-2.46h5.22c1.71,0,2.66.7,2.66,2.46V13.3ZM100.46,2.7a0.78,0.78,0,0,0-.89-0.93h-5.2a0.8,0.8,0,0,0-.93.93V13.3a0.79,0.79,0,0,0,.93.93h5.2a0.77,0.77,0,0,0,.89-0.87V2.7ZM100,13.14c0,0.45-.08.6-0.6,0.6H94.54c-0.49,0-.62-0.14-0.62-0.64V2.88c0-.5.1-0.62,0.62-0.62h4.83c0.52,0,.6.12,0.6,0.62V13.14Zm-1.77-1V3.81H95.68v8.38H98.2Z"/><path class="cls-1" d="M114.06,15.76H112.3V10.5a1.49,1.49,0,0,0-1.18-1.73v0c0.74-.16,1.18-0.62,1.18-1.82V2.55a0.72,0.72,0,0,0-.82-0.78h-5.94v14h-1.77V0.24h7.55c1.77,0,2.74.7,2.74,2.54v4a1.82,1.82,0,0,1-1.44,2v0a1.58,1.58,0,0,1,1.44,1.82v5.14Zm-2.25-8.66a1.42,1.42,0,0,1-1.59,1.42H106V2.25h5.28c0.39,0,.5.1,0.5,0.54V7.11Zm0,8.66H110V10.54h-2.25v5.22H106V9h4.19a1.44,1.44,0,0,1,1.59,1.38v5.38ZM110,7V3.81h-2.25V7H110Z"/><path class="cls-1" d="M120.41,15.76h-1.77V10.17h-0.56c-1.77,0-2.74-.68-2.74-2.52V0.24h1.77V7.86a0.73,0.73,0,0,0,.83.78h2.46v7.12Zm3.26-8.15c0,0.45-.14.54-0.52,0.54h-5c-0.39,0-.52-0.1-0.52-0.54V0.24h1.77V6.6h2.54V0.24h1.77V7.61Zm2.25,0c0,1.84-1,2.52-2.76,2.52h-0.5v5.59h-1.77V8.64h2.43a0.73,0.73,0,0,0,.83-0.78V0.24h1.77V7.65Z"/><path class="cls-1" d="M146.9,15.76h-1.77v-14h-0.5l-5.26,9.14-5.26-9.14h-0.49v14h-1.77V0.24H135l4.39,7.9,4.33-7.9h3.18V15.76Zm-2.25,0h-1.71V8.89l-3.3,5.55h-0.52l-3.3-5.59v6.91h-1.71V2.68l5.07,8.79h0.39l5.09-8.79V15.76Z"/><path class="cls-1" d="M159,15.76h-1.77V2.55a0.74,0.74,0,0,0-.81-0.78h-5.38a0.81,0.81,0,0,0-.83.87V15.76h-1.77v-13c0-1.84,1-2.54,2.76-2.54h5.07c1.77,0,2.74.7,2.74,2.54v13Zm-2.25-6.19h-6.06V2.8a0.48,0.48,0,0,1,.52-0.54h5a0.44,0.44,0,0,1,.52.54V9.57Zm0,6.19H155V11.59h-2.52v4.17h-1.77V10.06h6.06v5.71ZM155,8V3.81h-2.56V8H155Z"/><path class="cls-1" d="M169.46,1.77h-6.29a0.73,0.73,0,0,0-.83.78V7.38a0.74,0.74,0,0,0,.91.8H167c0.49,0,.62.12,0.62,0.52v4.5c0,0.43-.08.54-0.56,0.54h-6.46V12.19h5.26V9.73h-2.54c-2.19,0-2.72-1.09-2.72-2.45V2.78c0-1.84,1-2.54,2.74-2.54h6.15V1.77Zm0.39,11.53c0,1.81-1,2.46-2.72,2.46h-6.56V14.23H167c0.83,0,1-.25,1-1V8.58c0-.6-0.14-0.89-1-0.89h-3.76a0.36,0.36,0,0,1-.45-0.43V2.8c0-.45.14-0.54,0.52-0.54h6.11V3.81h-4.87V6.16h2.52c1.86,0,2.74.78,2.74,2.64v4.5Z"/><path class="cls-1" d="M181.4,1.77H170.74V0.24H181.4V1.77Zm-5.57,14h-1.77v-12h-3.32V2.25h5.08V15.76Zm5.57-12h-3.32v12h-1.77V2.25h5.08V3.81Z"/><path class="cls-1" d="M191.51,15.76h-9V0.24h9V1.77h-7.26V14.23h7.26v1.53Zm0-8.07h-6.77V2.25h6.77V3.81h-5V6.16h5V7.69Zm0,6.06h-6.77V8.17h6.77V9.71h-5v2.48h5v1.55Z"/><path class="cls-1" d="M203.16,15.76h-1.77V10.5a1.49,1.49,0,0,0-1.18-1.73v0c0.74-.16,1.18-0.62,1.18-1.82V2.55a0.72,0.72,0,0,0-.82-0.78h-5.94v14h-1.77V0.24h7.55c1.77,0,2.74.7,2.74,2.54v4a1.82,1.82,0,0,1-1.44,2v0a1.58,1.58,0,0,1,1.44,1.82v5.14ZM200.9,7.11a1.41,1.41,0,0,1-1.59,1.42h-4.19V2.25h5.28c0.39,0,.5.1,0.5,0.54V7.11Zm0,8.66h-1.77V10.54h-2.25v5.22h-1.77V9h4.19a1.44,1.44,0,0,1,1.59,1.38v5.38ZM199.14,7V3.81h-2.25V7h2.25Z"/></svg>