<?xml version="1.0" encoding="utf-8"?>
<!-- Generator: Adobe Illustrator 19.2.1, SVG Export Plug-In . SVG Version: 6.00 Build 0)  -->
<svg version="1.1" id="Layer_1" xmlns="http://www.w3.org/2000/svg" xmlns:xlink="http://www.w3.org/1999/xlink" x="0px" y="0px"
	 viewBox="0 0 250 8" style="enable-background:new 0 0 250 8;" xml:space="preserve">
<style type="text/css">
	.st0{fill:#FFFFFF;}
	.st1{fill:none;stroke:#FFFFFF;stroke-width:2;stroke-miterlimit:10;}
</style>
<g>
	<path class="st0" d="M61.9-27.1h-1.8v-14h-0.5L54.4-32l-5.3-9.1h-0.5v14h-1.8v-15.5H50l4.4,7.9l4.3-7.9h3.2V-27.1z M59.6-27.1h-1.7
		V-34l-3.3,5.6h-0.5L50.8-34v6.9h-1.7v-13.1l5.1,8.8h0.4l5.1-8.8V-27.1z"/>
	<path class="st0" d="M72.5-27.1h-9v-15.5h9v1.5h-7.3v12.5h7.3V-27.1z M72.5-35.2h-6.8v-5.4h6.8v1.6h-5v2.3h5V-35.2z M72.5-29.2
		h-6.8v-5.6h6.8v1.5h-5v2.5h5V-29.2z"/>
	<path class="st0" d="M90.1-27.1h-1.8v-13.2c0-0.5-0.4-0.8-0.9-0.8H75.6v14h-1.8v-15.5h13.5c1.8,0,2.8,0.7,2.8,2.5V-27.1z
		 M81.7-27.1H80v-12h-2.1v12h-1.8v-13.5h5.6V-27.1z M87.9-27.1h-1.8v-12H84v12h-1.8v-13.5h5.1c0.4,0,0.5,0.1,0.5,0.5V-27.1z"/>
	<path class="st0" d="M102.2-29.6c0,1.7-0.9,2.5-2.7,2.5h-5.2c-1.7,0-2.7-0.7-2.7-2.5v-10.6c0-1.6,0.9-2.5,2.7-2.5h5.2
		c1.7,0,2.7,0.7,2.7,2.5V-29.6z M100.5-40.2c0-0.7-0.3-0.9-0.9-0.9h-5.2c-0.6,0-0.9,0.2-0.9,0.9v10.6c0,0.7,0.3,0.9,0.9,0.9h5.2
		c0.6,0,0.9-0.3,0.9-0.9V-40.2z M100-29.8c0,0.4-0.1,0.6-0.6,0.6h-4.8c-0.5,0-0.6-0.1-0.6-0.6V-40c0-0.5,0.1-0.6,0.6-0.6h4.8
		c0.5,0,0.6,0.1,0.6,0.6V-29.8z M98.2-30.7v-8.4h-2.5v8.4H98.2z"/>
	<path class="st0" d="M114.1-27.1h-1.8v-5.3c0-1.2-0.6-1.6-1.2-1.7v0c0.7-0.2,1.2-0.6,1.2-1.8v-4.4c0-0.5-0.3-0.8-0.8-0.8h-5.9v14
		h-1.8v-15.5h7.5c1.8,0,2.7,0.7,2.7,2.5v4c0,1.2-0.5,1.7-1.4,2v0c0.9,0.1,1.4,0.6,1.4,1.8V-27.1z M111.8-35.8c0,0.9-0.7,1.4-1.6,1.4
		H106v-6.3h5.3c0.4,0,0.5,0.1,0.5,0.5V-35.8z M111.8-27.1H110v-5.2h-2.3v5.2H106v-6.8h4.2c0.8,0,1.6,0.5,1.6,1.4V-27.1z M110-35.9
		v-3.2h-2.3v3.2H110z"/>
	<path class="st0" d="M120.4-27.1h-1.8v-5.6h-0.6c-1.8,0-2.7-0.7-2.7-2.5v-7.4h1.8v7.6c0,0.5,0.3,0.8,0.8,0.8h2.5V-27.1z
		 M123.7-35.3c0,0.4-0.1,0.5-0.5,0.5h-5c-0.4,0-0.5-0.1-0.5-0.5v-7.4h1.8v6.4h2.5v-6.4h1.8V-35.3z M125.9-35.2c0,1.8-1,2.5-2.8,2.5
		h-0.5v5.6h-1.8v-7.1h2.4c0.5,0,0.8-0.2,0.8-0.8v-7.6h1.8V-35.2z"/>
	<path class="st0" d="M146.9-27.1h-1.8v-14h-0.5l-5.3,9.1l-5.3-9.1h-0.5v14h-1.8v-15.5h3.1l4.4,7.9l4.3-7.9h3.2V-27.1z M144.7-27.1
		h-1.7V-34l-3.3,5.6h-0.5l-3.3-5.6v6.9h-1.7v-13.1l5.1,8.8h0.4l5.1-8.8V-27.1z"/>
	<path class="st0" d="M159-27.1h-1.8v-13.2c0-0.5-0.3-0.8-0.8-0.8h-5.4c-0.5,0-0.8,0.3-0.8,0.9v13.1h-1.8v-13c0-1.8,1-2.5,2.8-2.5
		h5.1c1.8,0,2.7,0.7,2.7,2.5V-27.1z M156.8-33.3h-6.1v-6.8c0-0.4,0.2-0.5,0.5-0.5h5c0.4,0,0.5,0.1,0.5,0.5V-33.3z M156.8-27.1H155
		v-4.2h-2.5v4.2h-1.8v-5.7h6.1V-27.1z M155-34.9v-4.2h-2.6v4.2H155z"/>
	<path class="st0" d="M169.5-41.1h-6.3c-0.5,0-0.8,0.2-0.8,0.8v4.8c0,0.4,0.1,0.8,0.9,0.8h3.7c0.5,0,0.6,0.1,0.6,0.5v4.5
		c0,0.4-0.1,0.5-0.6,0.5h-6.5v-1.6h5.3v-2.5h-2.5c-2.2,0-2.7-1.1-2.7-2.4v-4.5c0-1.8,1-2.5,2.7-2.5h6.2V-41.1z M169.8-29.6
		c0,1.8-1,2.5-2.7,2.5h-6.6v-1.5h6.5c0.8,0,1-0.3,1-1v-4.7c0-0.6-0.1-0.9-1-0.9h-3.8c-0.4,0-0.4-0.2-0.4-0.4v-4.5
		c0-0.4,0.1-0.5,0.5-0.5h6.1v1.6h-4.9v2.3h2.5c1.9,0,2.7,0.8,2.7,2.6V-29.6z"/>
	<path class="st0" d="M181.4-41.1h-10.7v-1.5h10.7V-41.1z M175.8-27.1h-1.8v-12h-3.3v-1.6h5.1V-27.1z M181.4-39.1h-3.3v12h-1.8
		v-13.5h5.1V-39.1z"/>
	<path class="st0" d="M191.5-27.1h-9v-15.5h9v1.5h-7.3v12.5h7.3V-27.1z M191.5-35.2h-6.8v-5.4h6.8v1.6h-5v2.3h5V-35.2z M191.5-29.2
		h-6.8v-5.6h6.8v1.5h-5v2.5h5V-29.2z"/>
	<path class="st0" d="M203.2-27.1h-1.8v-5.3c0-1.2-0.6-1.6-1.2-1.7v0c0.7-0.2,1.2-0.6,1.2-1.8v-4.4c0-0.5-0.3-0.8-0.8-0.8h-5.9v14
		h-1.8v-15.5h7.5c1.8,0,2.7,0.7,2.7,2.5v4c0,1.2-0.5,1.7-1.4,2v0c0.9,0.1,1.4,0.6,1.4,1.8V-27.1z M200.9-35.8c0,0.9-0.7,1.4-1.6,1.4
		h-4.2v-6.3h5.3c0.4,0,0.5,0.1,0.5,0.5V-35.8z M200.9-27.1h-1.8v-5.2h-2.3v5.2h-1.8v-6.8h4.2c0.8,0,1.6,0.5,1.6,1.4V-27.1z
		 M199.1-35.9v-3.2h-2.3v3.2H199.1z"/>
</g>
<g>
	<path class="st0" d="M61.9,37.7h-1.8v-14h-0.5l-5.3,9.1l-5.3-9.1h-0.5v14h-1.8V22.2H50l4.4,7.9l4.3-7.9h3.2V37.7z M59.6,37.7h-1.7
		v-6.9l-3.3,5.6h-0.5l-3.3-5.6v6.9h-1.7V24.6l5.1,8.8h0.4l5.1-8.8V37.7z"/>
	<path class="st0" d="M72.5,37.7h-9V22.2h9v1.5h-7.3v12.5h7.3V37.7z M72.5,29.6h-6.8v-5.4h6.8v1.6h-5v2.3h5V29.6z M72.5,35.7h-6.8
		v-5.6h6.8v1.5h-5v2.5h5V35.7z"/>
	<path class="st0" d="M90.1,37.7h-1.8V24.5c0-0.5-0.4-0.8-0.9-0.8H75.6v14h-1.8V22.2h13.5c1.8,0,2.8,0.7,2.8,2.5V37.7z M81.7,37.7
		H80v-12h-2.1v12h-1.8V24.2h5.6V37.7z M87.9,37.7h-1.8v-12H84v12h-1.8V24.2h5.1c0.4,0,0.5,0.1,0.5,0.5V37.7z"/>
	<path class="st0" d="M102.2,35.2c0,1.7-0.9,2.5-2.7,2.5h-5.2c-1.7,0-2.7-0.7-2.7-2.5V24.6c0-1.6,0.9-2.5,2.7-2.5h5.2
		c1.7,0,2.7,0.7,2.7,2.5V35.2z M100.5,24.6c0-0.7-0.3-0.9-0.9-0.9h-5.2c-0.6,0-0.9,0.2-0.9,0.9v10.6c0,0.7,0.3,0.9,0.9,0.9h5.2
		c0.6,0,0.9-0.3,0.9-0.9V24.6z M100,35.1c0,0.4-0.1,0.6-0.6,0.6h-4.8c-0.5,0-0.6-0.1-0.6-0.6V24.8c0-0.5,0.1-0.6,0.6-0.6h4.8
		c0.5,0,0.6,0.1,0.6,0.6V35.1z M98.2,34.1v-8.4h-2.5v8.4H98.2z"/>
	<path class="st0" d="M114.1,37.7h-1.8v-5.3c0-1.2-0.6-1.6-1.2-1.7v0c0.7-0.2,1.2-0.6,1.2-1.8v-4.4c0-0.5-0.3-0.8-0.8-0.8h-5.9v14
		h-1.8V22.2h7.5c1.8,0,2.7,0.7,2.7,2.5v4c0,1.2-0.5,1.7-1.4,2v0c0.9,0.1,1.4,0.6,1.4,1.8V37.7z M111.8,29c0,0.9-0.7,1.4-1.6,1.4H106
		v-6.3h5.3c0.4,0,0.5,0.1,0.5,0.5V29z M111.8,37.7H110v-5.2h-2.3v5.2H106v-6.8h4.2c0.8,0,1.6,0.5,1.6,1.4V37.7z M110,28.9v-3.2h-2.3
		v3.2H110z"/>
	<path class="st0" d="M120.4,37.7h-1.8v-5.6h-0.6c-1.8,0-2.7-0.7-2.7-2.5v-7.4h1.8v7.6c0,0.5,0.3,0.8,0.8,0.8h2.5V37.7z M123.7,29.5
		c0,0.4-0.1,0.5-0.5,0.5h-5c-0.4,0-0.5-0.1-0.5-0.5v-7.4h1.8v6.4h2.5v-6.4h1.8V29.5z M125.9,29.6c0,1.8-1,2.5-2.8,2.5h-0.5v5.6h-1.8
		v-7.1h2.4c0.5,0,0.8-0.2,0.8-0.8v-7.6h1.8V29.6z"/>
	<path class="st0" d="M146.9,37.7h-1.8v-14h-0.5l-5.3,9.1l-5.3-9.1h-0.5v14h-1.8V22.2h3.1l4.4,7.9l4.3-7.9h3.2V37.7z M144.7,37.7
		h-1.7v-6.9l-3.3,5.6h-0.5l-3.3-5.6v6.9h-1.7V24.6l5.1,8.8h0.4l5.1-8.8V37.7z"/>
	<path class="st0" d="M159,37.7h-1.8V24.5c0-0.5-0.3-0.8-0.8-0.8h-5.4c-0.5,0-0.8,0.3-0.8,0.9v13.1h-1.8v-13c0-1.8,1-2.5,2.8-2.5
		h5.1c1.8,0,2.7,0.7,2.7,2.5V37.7z M156.8,31.5h-6.1v-6.8c0-0.4,0.2-0.5,0.5-0.5h5c0.4,0,0.5,0.1,0.5,0.5V31.5z M156.8,37.7H155
		v-4.2h-2.5v4.2h-1.8V32h6.1V37.7z M155,30v-4.2h-2.6V30H155z"/>
	<path class="st0" d="M169.5,23.7h-6.3c-0.5,0-0.8,0.2-0.8,0.8v4.8c0,0.4,0.1,0.8,0.9,0.8h3.7c0.5,0,0.6,0.1,0.6,0.5v4.5
		c0,0.4-0.1,0.5-0.6,0.5h-6.5v-1.6h5.3v-2.5h-2.5c-2.2,0-2.7-1.1-2.7-2.4v-4.5c0-1.8,1-2.5,2.7-2.5h6.2V23.7z M169.8,35.2
		c0,1.8-1,2.5-2.7,2.5h-6.6v-1.5h6.5c0.8,0,1-0.3,1-1v-4.7c0-0.6-0.1-0.9-1-0.9h-3.8c-0.4,0-0.4-0.2-0.4-0.4v-4.5
		c0-0.4,0.1-0.5,0.5-0.5h6.1v1.6h-4.9v2.3h2.5c1.9,0,2.7,0.8,2.7,2.6V35.2z"/>
	<path class="st0" d="M181.4,23.7h-10.7v-1.5h10.7V23.7z M175.8,37.7h-1.8v-12h-3.3v-1.6h5.1V37.7z M181.4,25.7h-3.3v12h-1.8V24.2
		h5.1V25.7z"/>
	<path class="st0" d="M191.5,37.7h-9V22.2h9v1.5h-7.3v12.5h7.3V37.7z M191.5,29.6h-6.8v-5.4h6.8v1.6h-5v2.3h5V29.6z M191.5,35.7
		h-6.8v-5.6h6.8v1.5h-5v2.5h5V35.7z"/>
	<path class="st0" d="M203.2,37.7h-1.8v-5.3c0-1.2-0.6-1.6-1.2-1.7v0c0.7-0.2,1.2-0.6,1.2-1.8v-4.4c0-0.5-0.3-0.8-0.8-0.8h-5.9v14
		h-1.8V22.2h7.5c1.8,0,2.7,0.7,2.7,2.5v4c0,1.2-0.5,1.7-1.4,2v0c0.9,0.1,1.4,0.6,1.4,1.8V37.7z M200.9,29c0,0.9-0.7,1.4-1.6,1.4
		h-4.2v-6.3h5.3c0.4,0,0.5,0.1,0.5,0.5V29z M200.9,37.7h-1.8v-5.2h-2.3v5.2h-1.8v-6.8h4.2c0.8,0,1.6,0.5,1.6,1.4V37.7z M199.1,28.9
		v-3.2h-2.3v3.2H199.1z"/>
</g>
<g>
	<line class="st1" x1="59.6" y1="-50" x2="189.6" y2="-50"/>
	<line class="st1" x1="74.6" y1="-53.4" x2="174.6" y2="-53.4"/>
</g>
<g>
	<line class="st1" x1="60" y1="5.7" x2="190" y2="5.7"/>
	<line class="st1" x1="75" y1="2.3" x2="175" y2="2.3"/>
</g>
<g>
	<line class="st1" x1="189.6" y1="-18.7" x2="59.6" y2="-18.7"/>
	<line class="st1" x1="174.6" y1="-15.3" x2="74.6" y2="-15.3"/>
</g>
<g>
	<line class="st1" x1="190" y1="12" x2="60" y2="12"/>
	<line class="st1" x1="175" y1="15.3" x2="75" y2="15.3"/>
</g>
</svg>
