<?xml version="1.0" encoding="utf-8"?>
<!-- Generator: Adobe Illustrator 19.2.1, SVG Export Plug-In . SVG Version: 6.00 Build 0)  -->
<svg version="1.1" id="Layer_1" xmlns="http://www.w3.org/2000/svg" xmlns:xlink="http://www.w3.org/1999/xlink" x="0px" y="0px"
	 viewBox="0 0 150 150" style="enable-background:new 0 0 150 150;" xml:space="preserve">
<style type="text/css">
	.st0{fill:#E600D1;}
	.st1{fill:#BA00D1;}
	.st2{fill:#E65CD1;}
	.st3{fill:#E60088;}
	.st4{fill:#A700D1;}
</style>
<g>
	<path class="st0" d="M42.9,67.3c3-2.9,7.2-5.7,11.1-4.1c2.1,0.9,3.5,2.8,4.2,4.9s0.8,4.4,0.9,6.6c0.1,1.9,0.1,3.8,0.2,5.7
		c0.6,0.1,1.2,0.2,1.8,0.3c4.8,1,9.3,2.9,14,4.4c3.9,1.3,8.3,2.3,11.8,0.4c3-1.6,4.5-5,5.9-8.1c0.6-1.3,1.2-2.6,1.7-3.9
		c-0.2-0.1-0.5-0.2-0.7-0.2c-2-0.4-4.1,0.5-6,1.3c-3.2,1.5-6.5,3.1-10,3.4c-3.5,0.3-7.4-0.9-9.3-3.9c-2.1-3.4-1-7.7-0.9-11.7
		c0.3-7.1-2.7-14.3-7.9-19.2c-0.8-0.7-1.7-1.4-2.6-2c-11.7,6.2-19.8,18.4-20.2,32.5C38.8,71.5,40.8,69.3,42.9,67.3z"/>
	<path class="st1" d="M46.6,81.4c4-1.6,8.4-1.6,12.7-0.9c-0.1-1.9-0.1-3.8-0.2-5.7c-0.1-2.2-0.2-4.5-0.9-6.6s-2.1-4.1-4.2-4.9
		c-3.9-1.6-8.1,1.2-11.1,4.1c-2.1,2-4.1,4.2-6,6.5c0,0.4,0,0.8,0,1.2c0,4.2,0.7,8.2,1.9,12C41,84.6,43.6,82.6,46.6,81.4z"/>
	<path class="st2" d="M67.6,62.5c-0.2,4-1.2,8.3,0.9,11.7c1.9,3,5.8,4.3,9.3,3.9c3.5-0.3,6.8-1.9,10-3.4c1.9-0.9,4-1.8,6-1.3
		c0.2,0.1,0.5,0.1,0.7,0.2c3.3-7.6,6.7-15.2,10-22.7c-7-8.6-17.6-14-29.5-14c-6.5,0-12.6,1.6-17.9,4.5c0.9,0.6,1.8,1.3,2.6,2
		C64.9,48.2,67.9,55.4,67.6,62.5z"/>
	<path class="st0" d="M59.3,80.5c-4.2-0.7-8.7-0.6-12.7,0.9c-3,1.2-5.6,3.2-7.8,5.6c3.5,10.6,11.5,19.1,21.8,23.3
		c-0.2-1.5-0.2-3.1-0.3-4.6C60,97.3,59.6,88.9,59.3,80.5z"/>
	<path class="st3" d="M104.5,50.9c-3.3,7.6-6.7,15.2-10,22.7c1.6,0.6,2.9,2.1,3.7,3.7c0.9,1.8,1.2,3.8,1.6,5.8
		c1.1,5.2,2.8,10.4,5.4,15.1c5-6.4,7.9-14.5,7.9-23.2C113.1,65.9,109.9,57.5,104.5,50.9z"/>
	<path class="st4" d="M98.2,77.3c-0.8-1.6-2-3-3.7-3.7c-0.6,1.3-1.2,2.6-1.7,3.9c-1.4,3.1-2.9,6.4-5.9,8.1c-3.6,2-8,0.9-11.8-0.4
		c-4.6-1.6-9.2-3.4-14-4.4c-0.6-0.1-1.2-0.2-1.8-0.3c0.3,8.4,0.6,16.8,1,25.2c0.1,1.5,0.1,3.1,0.3,4.6c4.4,1.8,9.3,2.8,14.4,2.8
		c12.3,0,23.3-5.8,30.2-14.9c-2.6-4.6-4.4-9.9-5.4-15.1C99.4,81.2,99.1,79.1,98.2,77.3z"/>
</g>
</svg>
