<?xml version="1.0" encoding="utf-8"?>
<!-- Generator: Adobe Illustrator 19.2.1, SVG Export Plug-In . SVG Version: 6.00 Build 0)  -->
<svg version="1.1" id="Layer_1" xmlns="http://www.w3.org/2000/svg" xmlns:xlink="http://www.w3.org/1999/xlink" x="0px" y="0px"
	 viewBox="0 0 150 150" style="enable-background:new 0 0 150 150;" xml:space="preserve">
<style type="text/css">
	.st0{fill:#00BFD1;}
	.st1{fill:#00BFF3;}
	.st2{fill:#BFBFF3;}
	.st3{fill:#0076F3;}
	.st4{fill:#60BFF3;}
</style>
<g>
	<path class="st0" d="M17.2,61.2c5.5-5.2,13.1-10.3,20-7.4c3.7,1.5,6.3,5.1,7.5,8.9c1.3,3.8,1.4,7.9,1.6,11.9
		c0.1,3.4,0.3,6.9,0.4,10.3c1.1,0.2,2.1,0.4,3.2,0.6c8.6,1.9,16.8,5.2,25.1,8c6.9,2.3,14.9,4.2,21.3,0.7c5.3-3,8.1-8.9,10.6-14.5
		c1-2.4,2.1-4.7,3.1-7.1c-0.4-0.2-0.8-0.3-1.2-0.4c-3.7-0.8-7.4,0.8-10.8,2.4c-5.8,2.7-11.7,5.6-18.1,6.1
		c-6.4,0.6-13.4-1.6-16.8-7.1c-3.8-6.1-1.9-14-1.6-21.1c0.5-12.8-4.8-25.8-14.3-34.5c-1.5-1.3-3-2.6-4.6-3.7
		C21.7,25.6,7.2,47.5,6.4,72.8C9.8,68.7,13.4,64.8,17.2,61.2z"/>
	<path class="st1" d="M23.9,86.5c7.2-2.8,15.2-2.9,22.8-1.6c-0.1-3.4-0.3-6.9-0.4-10.3c-0.2-4-0.3-8.1-1.6-11.9
		c-1.3-3.8-3.8-7.4-7.5-8.9c-7-2.9-14.6,2.2-20,7.4c-3.8,3.7-7.4,7.6-10.8,11.7c0,0.7-0.1,1.5-0.1,2.2c0,7.5,1.2,14.8,3.5,21.6
		C13.8,92.2,18.5,88.7,23.9,86.5z"/>
	<path class="st1" d="M61.7,52.5c-0.3,7.2-2.2,15,1.6,21.1c3.4,5.4,10.4,7.7,16.8,7.1c6.4-0.6,12.3-3.4,18.1-6.1
		c3.4-1.6,7.1-3.2,10.8-2.4c0.4,0.1,0.8,0.2,1.2,0.4c6-13.7,12.1-27.3,18.1-41C115.6,16.2,96.5,6.3,75,6.3c-11.7,0-22.6,2.9-32.2,8
		c1.6,1.1,3.2,2.3,4.6,3.7C56.8,26.8,62.2,39.7,61.7,52.5z"/>
	<path class="st2" d="M46.7,84.9c-7.7-1.3-15.6-1.2-22.8,1.6c-5.4,2.1-10.2,5.7-14.1,10c6.3,19.1,20.8,34.4,39.2,42
		c-0.3-2.8-0.4-5.5-0.6-8.3C47.9,115.2,47.3,100,46.7,84.9z"/>
	<path class="st3" d="M128.2,31.6c-6,13.7-12.1,27.3-18.1,41c3,1.1,5.3,3.7,6.6,6.6c1.6,3.3,2.2,6.9,2.9,10.5
		c1.9,9.4,5.1,18.8,9.8,27.2c8.9-11.6,14.2-26.1,14.2-41.8C143.7,58.5,137.9,43.4,128.2,31.6z"/>
	<path class="st4" d="M116.8,79.2c-1.4-2.9-3.7-5.5-6.6-6.6c-1,2.4-2.1,4.7-3.1,7.1c-2.5,5.6-5.3,11.6-10.6,14.5
		C90,97.7,82,95.8,75.1,93.5c-8.3-2.8-16.5-6.1-25.1-8c-1.1-0.2-2.1-0.4-3.2-0.6c0.6,15.1,1.2,30.3,1.8,45.4
		c0.1,2.7,0.2,5.5,0.6,8.3c8,3.3,16.8,5.1,26,5.1c22.2,0,41.9-10.5,54.4-26.8c-4.7-8.4-7.9-17.7-9.8-27.2
		C118.9,86.1,118.3,82.4,116.8,79.2z"/>
</g>
</svg>
